<svg width="285" height="206" viewBox="0 0 285 206" fill="none" xmlns="http://www.w3.org/2000/svg">
<g filter="url(#filter0_bd_1_59)">
<path d="M160.179 14.4614V42.9516C160.179 44.8154 158.571 46.413 156.696 46.413H128.304C126.429 46.413 124.821 44.8154 124.821 42.9516V14.4614C124.821 12.5976 126.429 11 128.304 11H156.964C158.839 11 160.179 12.5976 160.179 14.4614Z" fill="white" fill-opacity="0.15" shape-rendering="crispEdges"/>
<path d="M50.3571 67.4478V130.286C50.3571 142.002 60 151.587 71.7857 151.587H108.482C110.357 151.587 111.964 153.185 111.964 155.048V183.539C111.964 185.402 110.357 187 108.482 187H71.7857C40.4464 186.734 15 161.439 15 130.286V67.4478C15 36.295 40.4464 11 71.7857 11H108.482C110.357 11 111.964 12.5976 111.964 14.4614V42.9516C111.964 44.8154 110.357 46.413 108.482 46.413H71.7857C60 46.1467 50.3571 55.7322 50.3571 67.4478Z" fill="white" fill-opacity="0.15" shape-rendering="crispEdges"/>
<path d="M270 67.4478V130.286C270 161.439 244.554 186.734 213.214 186.734H128.304C126.429 186.734 124.821 185.136 124.821 183.272V62.3888C124.821 60.525 126.429 58.9274 128.304 58.9274H156.964C158.839 58.9274 160.446 60.525 160.446 62.3888V148.126C160.446 149.989 162.054 151.587 163.929 151.587H213.214C225 151.587 234.643 142.001 234.643 130.286V67.4478C234.643 55.7322 225 46.1467 213.214 46.1467H176.518C174.643 46.1467 173.036 44.5492 173.036 42.6853V14.4614C173.036 12.5976 174.643 11 176.518 11H213.214C244.554 11 270 36.295 270 67.4478Z" fill="white" fill-opacity="0.15" shape-rendering="crispEdges"/>
<path d="M159.679 14.4614V42.9516C159.679 44.5365 158.298 45.913 156.696 45.913H128.304C126.702 45.913 125.321 44.5365 125.321 42.9516V14.4614C125.321 12.8765 126.702 11.5 128.304 11.5H156.964C158.515 11.5 159.679 12.8229 159.679 14.4614ZM49.8571 67.4478V130.286C49.8571 142.28 59.7267 152.087 71.7857 152.087H108.482C110.084 152.087 111.464 153.464 111.464 155.048V183.539C111.464 185.123 110.084 186.5 108.482 186.5L71.79 186.5C71.7894 186.5 71.7888 186.5 71.7882 186.5C40.7189 186.235 15.5 161.158 15.5 130.286V67.4478C15.5 36.574 40.7198 11.5 71.7857 11.5H108.482C110.084 11.5 111.464 12.8765 111.464 14.4614V42.9516C111.464 44.5365 110.084 45.913 108.482 45.913H71.7914C59.724 45.6435 49.8571 55.4573 49.8571 67.4478ZM269.5 67.4478V130.286C269.5 161.16 244.28 186.234 213.214 186.234H128.304C126.702 186.234 125.321 184.857 125.321 183.272V62.3888C125.321 60.8039 126.702 59.4274 128.304 59.4274H156.964C158.566 59.4274 159.946 60.8039 159.946 62.3888V148.126C159.946 150.268 161.78 152.087 163.929 152.087H213.214C225.273 152.087 235.143 142.28 235.143 130.286V67.4478C235.143 55.4533 225.273 45.6467 213.214 45.6467H176.518C174.916 45.6467 173.536 44.2702 173.536 42.6853V14.4614C173.536 12.8765 174.916 11.5 176.518 11.5H213.214C244.28 11.5 269.5 36.574 269.5 67.4478Z" stroke="url(#paint0_linear_1_59)" shape-rendering="crispEdges"/>
</g>
<defs>
<filter id="filter0_bd_1_59" x="-15" y="-19" width="315" height="236" filterUnits="userSpaceOnUse" color-interpolation-filters="sRGB">
<feFlood flood-opacity="0" result="BackgroundImageFix"/>
<feGaussianBlur in="BackgroundImageFix" stdDeviation="15"/>
<feComposite in2="SourceAlpha" operator="in" result="effect1_backgroundBlur_1_59"/>
<feColorMatrix in="SourceAlpha" type="matrix" values="0 0 0 0 0 0 0 0 0 0 0 0 0 0 0 0 0 0 127 0" result="hardAlpha"/>
<feOffset dy="4"/>
<feGaussianBlur stdDeviation="7.5"/>
<feComposite in2="hardAlpha" operator="out"/>
<feColorMatrix type="matrix" values="0 0 0 0 0 0 0 0 0 0 0 0 0 0 0 0 0 0 0.5 0"/>
<feBlend mode="normal" in2="effect1_backgroundBlur_1_59" result="effect2_dropShadow_1_59"/>
<feBlend mode="normal" in="SourceGraphic" in2="effect2_dropShadow_1_59" result="shape"/>
</filter>
<linearGradient id="paint0_linear_1_59" x1="142.5" y1="11" x2="142.5" y2="187" gradientUnits="userSpaceOnUse">
<stop stop-color="white"/>
<stop offset="0.536458" stop-color="white" stop-opacity="0"/>
<stop offset="1" stop-color="white"/>
</linearGradient>
</defs>
</svg>
