<svg width="244" height="106" viewBox="0 0 244 106" fill="none" xmlns="http://www.w3.org/2000/svg">
<g filter="url(#filter0_bd_6_69)">
<rect x="30" y="26" width="184" height="46" rx="23" fill="white" fill-opacity="0.05" shape-rendering="crispEdges"/>
<path d="M55.692 54H54.864V48.192H55.584L55.68 49.02C55.968 48.408 56.616 48.036 57.432 48.036C58.344 48.036 59.028 48.516 59.304 49.272C59.568 48.516 60.276 48.036 61.212 48.036C62.472 48.036 63.3 48.852 63.3 50.196V54H62.496V50.364C62.496 49.368 61.944 48.78 61.056 48.78C60.084 48.78 59.508 49.512 59.508 50.412V54H58.692V50.352C58.692 49.368 58.128 48.792 57.252 48.792C56.28 48.792 55.692 49.512 55.692 50.4V54ZM66.6336 54.144C65.3976 54.144 64.6656 53.448 64.6656 52.428C64.6656 51.36 65.4816 50.688 66.8376 50.58L68.7576 50.424V50.232C68.7576 49.092 68.0736 48.732 67.2216 48.732C66.2136 48.732 65.6136 49.188 65.6136 49.968H64.8576C64.8576 48.792 65.8176 48.036 67.2456 48.036C68.5896 48.036 69.5736 48.708 69.5736 50.244V54H68.8776L68.7696 52.98C68.4096 53.712 67.6176 54.144 66.6336 54.144ZM66.8256 53.472C68.0496 53.472 68.7576 52.62 68.7576 51.36V51.048L67.0416 51.18C65.9496 51.276 65.5056 51.756 65.5056 52.404C65.5056 53.112 66.0336 53.472 66.8256 53.472ZM72.0631 54H71.2351V48.192H71.9551L72.0751 49.2C72.4591 48.456 73.2271 48.036 74.0671 48.036C75.6631 48.036 76.3231 48.984 76.3231 50.448V54H75.4951V50.628C75.4951 49.272 74.8831 48.792 73.9231 48.792C72.7351 48.792 72.0631 49.656 72.0631 50.964V54ZM80.2534 54.144C78.5614 54.144 77.5654 52.848 77.5654 51.108C77.5654 49.356 78.5614 48.036 80.2894 48.036C81.2494 48.036 82.0174 48.456 82.4254 49.296V45.252H83.2534V54H82.5334L82.4494 52.812C82.0414 53.712 81.2254 54.144 80.2534 54.144ZM80.3974 53.388C81.6694 53.388 82.4134 52.428 82.4134 51.084C82.4134 49.752 81.6694 48.78 80.3974 48.78C79.1374 48.78 78.4054 49.752 78.4054 51.084C78.4054 52.428 79.1374 53.388 80.3974 53.388ZM86.6492 54.144C85.4132 54.144 84.6812 53.448 84.6812 52.428C84.6812 51.36 85.4972 50.688 86.8532 50.58L88.7732 50.424V50.232C88.7732 49.092 88.0892 48.732 87.2372 48.732C86.2292 48.732 85.6292 49.188 85.6292 49.968H84.8732C84.8732 48.792 85.8332 48.036 87.2612 48.036C88.6052 48.036 89.5892 48.708 89.5892 50.244V54H88.8932L88.7852 52.98C88.4252 53.712 87.6332 54.144 86.6492 54.144ZM86.8412 53.472C88.0652 53.472 88.7732 52.62 88.7732 51.36V51.048L87.0572 51.18C85.9652 51.276 85.5212 51.756 85.5212 52.404C85.5212 53.112 86.0492 53.472 86.8412 53.472ZM98.6588 48.192H99.4868V54H98.7668L98.6588 53.016C98.3348 53.688 97.5308 54.144 96.6188 54.144C95.2508 54.144 94.5068 53.208 94.5068 51.792V48.18H95.3468V51.528C95.3468 52.908 95.9588 53.4 96.8828 53.4C97.9988 53.4 98.6588 52.656 98.6588 51.276V48.192ZM102.04 54H101.212V48.192H101.932L102.052 49.2C102.436 48.456 103.204 48.036 104.044 48.036C105.64 48.036 106.3 48.984 106.3 50.448V54H105.472V50.628C105.472 49.272 104.86 48.792 103.9 48.792C102.712 48.792 102.04 49.656 102.04 50.964V54ZM112.106 54H111.278V48.192H111.998L112.094 49.02C112.382 48.408 113.03 48.036 113.846 48.036C114.758 48.036 115.442 48.516 115.718 49.272C115.982 48.516 116.69 48.036 117.626 48.036C118.886 48.036 119.714 48.852 119.714 50.196V54H118.91V50.364C118.91 49.368 118.358 48.78 117.47 48.78C116.498 48.78 115.922 49.512 115.922 50.412V54H115.106V50.352C115.106 49.368 114.542 48.792 113.666 48.792C112.694 48.792 112.106 49.512 112.106 50.4V54ZM123.816 54.144C122.112 54.144 120.972 52.92 120.972 51.096C120.972 49.284 122.1 48.036 123.756 48.036C125.328 48.036 126.396 49.152 126.396 50.796V51.204H121.776C121.836 52.62 122.58 53.436 123.828 53.436C124.776 53.436 125.388 53.028 125.604 52.26H126.396C126.084 53.484 125.184 54.144 123.816 54.144ZM123.756 48.744C122.664 48.744 121.944 49.464 121.8 50.604H125.568C125.568 49.488 124.848 48.744 123.756 48.744ZM128.547 54H127.719V48.192H128.439L128.559 49.2C128.943 48.456 129.711 48.036 130.551 48.036C132.147 48.036 132.807 48.984 132.807 50.448V54H131.979V50.628C131.979 49.272 131.367 48.792 130.407 48.792C129.219 48.792 128.547 49.656 128.547 50.964V54ZM133.895 52.368H134.687C134.687 53.04 135.191 53.46 136.007 53.46C136.907 53.46 137.435 53.076 137.435 52.452C137.435 51.972 137.195 51.696 136.511 51.528L135.515 51.276C134.507 51.024 134.015 50.496 134.015 49.704C134.015 48.684 134.867 48.036 136.115 48.036C137.339 48.036 138.131 48.708 138.167 49.788H137.363C137.339 49.116 136.871 48.72 136.091 48.72C135.275 48.72 134.819 49.068 134.819 49.692C134.819 50.136 135.131 50.448 135.767 50.604L136.763 50.856C137.771 51.108 138.227 51.576 138.227 52.416C138.227 53.46 137.339 54.144 136.019 54.144C134.711 54.144 133.895 53.448 133.895 52.368ZM141.259 54.144C140.023 54.144 139.291 53.448 139.291 52.428C139.291 51.36 140.107 50.688 141.463 50.58L143.383 50.424V50.232C143.383 49.092 142.699 48.732 141.847 48.732C140.839 48.732 140.239 49.188 140.239 49.968H139.483C139.483 48.792 140.443 48.036 141.871 48.036C143.215 48.036 144.199 48.708 144.199 50.244V54H143.503L143.395 52.98C143.035 53.712 142.243 54.144 141.259 54.144ZM141.451 53.472C142.675 53.472 143.383 52.62 143.383 51.36V51.048L141.667 51.18C140.575 51.276 140.131 51.756 140.131 52.404C140.131 53.112 140.659 53.472 141.451 53.472ZM146.28 46.596C145.932 46.596 145.656 46.32 145.656 45.984C145.656 45.648 145.932 45.36 146.28 45.36C146.604 45.36 146.892 45.648 146.892 45.984C146.892 46.32 146.604 46.596 146.28 46.596ZM144.312 56.544L144.468 55.788C144.708 55.848 144.852 55.872 145.032 55.872C145.608 55.872 145.86 55.536 145.86 54.828V48.192H146.688V54.876C146.688 55.98 146.112 56.652 145.092 56.652C144.78 56.652 144.612 56.628 144.312 56.544ZM150.851 54.144C149.147 54.144 148.007 52.92 148.007 51.096C148.007 49.284 149.135 48.036 150.791 48.036C152.363 48.036 153.431 49.152 153.431 50.796V51.204H148.811C148.871 52.62 149.615 53.436 150.863 53.436C151.811 53.436 152.423 53.028 152.639 52.26H153.431C153.119 53.484 152.219 54.144 150.851 54.144ZM150.791 48.744C149.699 48.744 148.979 49.464 148.835 50.604H152.603C152.603 49.488 151.883 48.744 150.791 48.744Z" fill="white"/>
<path d="M183.812 40.1375C182.667 38.9799 181.301 38.0621 179.797 37.4376C178.293 36.8131 176.679 36.4943 175.05 36.5C168.225 36.5 162.663 42.0625 162.663 48.8875C162.663 51.075 163.238 53.2 164.313 55.075L162.562 61.5L169.125 59.775C170.938 60.7625 172.975 61.2875 175.05 61.2875C181.875 61.2875 187.438 55.725 187.438 48.9C187.438 45.5875 186.15 42.475 183.812 40.1375ZM175.05 59.1875C173.2 59.1875 171.387 58.6875 169.8 57.75L169.425 57.525L165.525 58.55L166.562 54.75L166.313 54.3625C165.285 52.7212 164.739 50.8241 164.737 48.8875C164.737 43.2125 169.362 38.5875 175.037 38.5875C177.787 38.5875 180.375 39.6625 182.312 41.6125C183.272 42.5675 184.032 43.7033 184.549 44.9543C185.066 46.2052 185.33 47.5464 185.325 48.9C185.35 54.575 180.725 59.1875 175.05 59.1875ZM180.7 51.4875C180.387 51.3375 178.862 50.5875 178.587 50.475C178.3 50.375 178.1 50.325 177.888 50.625C177.675 50.9375 177.087 51.6375 176.912 51.8375C176.737 52.05 176.55 52.075 176.237 51.9125C175.925 51.7625 174.925 51.425 173.75 50.375C172.825 49.55 172.212 48.5375 172.025 48.225C171.85 47.9125 172 47.75 172.162 47.5875C172.3 47.45 172.475 47.225 172.625 47.05C172.775 46.875 172.838 46.7375 172.938 46.5375C173.038 46.325 172.987 46.15 172.912 46C172.837 45.85 172.212 44.325 171.962 43.7C171.712 43.1 171.45 43.175 171.262 43.1625H170.662C170.45 43.1625 170.125 43.2375 169.837 43.55C169.562 43.8625 168.762 44.6125 168.762 46.1375C168.762 47.6625 169.875 49.1375 170.025 49.3375C170.175 49.55 172.212 52.675 175.312 54.0125C176.05 54.3375 176.625 54.525 177.075 54.6625C177.812 54.9 178.488 54.8625 179.025 54.7875C179.625 54.7 180.862 54.0375 181.112 53.3125C181.375 52.5875 181.375 51.975 181.288 51.8375C181.2 51.7 181.012 51.6375 180.7 51.4875Z" fill="#F8F8F8"/>
<rect x="30.5" y="26.5" width="183" height="45" rx="22.5" stroke="url(#paint0_linear_6_69)" stroke-opacity="0.25" shape-rendering="crispEdges"/>
</g>
<defs>
<filter id="filter0_bd_6_69" x="-40" y="-44" width="324" height="186" filterUnits="userSpaceOnUse" color-interpolation-filters="sRGB">
<feFlood flood-opacity="0" result="BackgroundImageFix"/>
<feGaussianBlur in="BackgroundImageFix" stdDeviation="35"/>
<feComposite in2="SourceAlpha" operator="in" result="effect1_backgroundBlur_6_69"/>
<feColorMatrix in="SourceAlpha" type="matrix" values="0 0 0 0 0 0 0 0 0 0 0 0 0 0 0 0 0 0 127 0" result="hardAlpha"/>
<feMorphology radius="10" operator="dilate" in="SourceAlpha" result="effect2_dropShadow_6_69"/>
<feOffset dy="4"/>
<feGaussianBlur stdDeviation="10"/>
<feComposite in2="hardAlpha" operator="out"/>
<feColorMatrix type="matrix" values="0 0 0 0 0 0 0 0 0 0 0 0 0 0 0 0 0 0 0.25 0"/>
<feBlend mode="normal" in2="effect1_backgroundBlur_6_69" result="effect2_dropShadow_6_69"/>
<feBlend mode="normal" in="SourceGraphic" in2="effect2_dropShadow_6_69" result="shape"/>
</filter>
<linearGradient id="paint0_linear_6_69" x1="122" y1="26" x2="122" y2="72" gradientUnits="userSpaceOnUse">
<stop stop-color="white"/>
<stop offset="0.432292" stop-color="white" stop-opacity="0"/>
<stop offset="1" stop-color="white"/>
</linearGradient>
</defs>
</svg>
